<svg width="24" height="24" viewBox="0 0 24 24" fill="none" xmlns="http://www.w3.org/2000/svg">
<path d="M12 0C15.3145 0 18.3145 1.34375 20.4844 3.51562C22.6562 5.6875 24 8.6875 24 12C24 15.3145 22.6562 18.3145 20.4844 20.4844C18.3125 22.6562 15.3125 24 12 24C8.6875 24 5.68555 22.6562 3.51562 20.4844C1.34375 18.3145 0 15.3145 0 12C0 8.68555 1.34375 5.68555 3.51562 3.51562C5.68555 1.34375 8.68555 0 12 0ZM19.7422 4.25781C17.7598 2.27734 15.0234 1.05273 12 1.05273C8.97656 1.05273 6.24023 2.27734 4.25781 4.25781C2.27734 6.24023 1.05273 8.97656 1.05273 12C1.05273 15.0234 2.27734 17.7598 4.25977 19.7422C6.24023 21.7227 8.97852 22.9492 12.002 22.9492C15.0254 22.9492 17.7617 21.7246 19.7441 19.7422C21.7246 17.7617 22.9512 15.0234 22.9512 12C22.9473 8.97656 21.7227 6.24023 19.7422 4.25781Z" fill="#6A796F"/>
<path d="M16.3884 8.89368L15.1129 7.61623C14.9666 7.4713 14.769 7.39 14.5631 7.39C14.3572 7.39 14.1596 7.4713 14.0133 7.61623L11.9994 9.62421L9.98558 7.61623C9.83927 7.4713 9.64167 7.39 9.43573 7.39C9.22979 7.39 9.03219 7.4713 8.88588 7.61623L7.61625 8.88587C7.47132 9.03217 7.39001 9.22978 7.39001 9.43571C7.39001 9.64165 7.47132 9.83926 7.61625 9.98557L9.62422 11.9994L7.61625 14.0132C7.47132 14.1595 7.39001 14.3572 7.39001 14.5631C7.39001 14.769 7.47132 14.9666 7.61625 15.1129L8.88588 16.3884C9.03219 16.5334 9.22979 16.6147 9.43573 16.6147C9.64167 16.6147 9.83927 16.5334 9.98558 16.3884L11.9994 14.3746L14.0133 16.3884C14.1596 16.5334 14.3572 16.6147 14.5631 16.6147C14.769 16.6147 14.9666 16.5334 15.1129 16.3884L16.3884 15.1129C16.5334 14.9666 16.6147 14.769 16.6147 14.5631C16.6147 14.3572 16.5334 14.1595 16.3884 14.0132L14.3746 11.9994L16.3884 9.99338C16.5334 9.84707 16.6147 9.64946 16.6147 9.44353C16.6147 9.23759 16.5334 9.03998 16.3884 8.89368Z" fill="#6A796F"/>
</svg>
