<svg width="25" height="24" viewBox="0 0 25 24" fill="none" xmlns="http://www.w3.org/2000/svg">
<circle cx="12.0544" cy="12" r="11.5" fill="white" stroke="#6A796F"/>
<path d="M5.28328 13.628C5.33864 13.7143 5.40305 13.7973 5.47502 13.8748L5.47729 13.8766C6.10638 14.5404 7.15596 15.4888 7.91263 16.1464C8.34947 16.5258 8.78153 16.9013 9.17912 17.2702L9.19497 17.2853C9.27424 17.355 9.3613 17.4186 9.45466 17.475L9.47051 17.4851C9.56941 17.5435 9.67308 17.592 9.77902 17.6298C9.87615 17.664 9.97781 17.6902 10.0822 17.7078L10.1079 17.7128C10.2088 17.7284 10.3137 17.7347 10.4202 17.7324L10.4516 17.7317C10.5676 17.7264 10.6819 17.7108 10.7914 17.6846C10.9013 17.6587 11.0105 17.6212 11.1155 17.5739C11.2201 17.5261 11.3203 17.469 11.4131 17.4025C11.5035 17.3381 11.5898 17.2626 11.6703 17.1766L18.5196 9.98982C18.5986 9.90653 18.6691 9.81544 18.729 9.72057C18.7899 9.62369 18.8415 9.52128 18.8817 9.41609C18.9215 9.31342 18.9514 9.20572 18.9713 9.09626C18.9894 8.99561 18.999 8.89369 19 8.79329V8.73541C18.9972 8.6184 18.9836 8.50366 18.9585 8.39319C18.9336 8.28071 18.8978 8.17049 18.8518 8.06631C18.8072 7.96264 18.7521 7.86274 18.6877 7.76988C18.6251 7.67904 18.5533 7.59349 18.4738 7.51472L18.4331 7.47773C18.3488 7.39822 18.2592 7.32902 18.1673 7.27089C18.0712 7.21024 17.9695 7.15941 17.8636 7.1189C17.7486 7.07461 17.6381 7.04467 17.5282 7.02604C17.4154 7.00692 17.3042 6.99887 17.1907 7.00013H17.1842C17.0702 7.00264 16.9555 7.01673 16.843 7.04165C16.7302 7.06631 16.62 7.10204 16.5158 7.14759C16.4127 7.19263 16.3128 7.24824 16.2177 7.31392C16.1248 7.37834 16.037 7.45207 15.9572 7.53435L10.2873 13.4818L9.82406 13.0663C9.2843 12.586 8.4622 11.8238 7.97629 11.3577L7.96774 11.3499C7.88042 11.2702 7.78681 11.2004 7.68867 11.1418C7.00221 10.7289 6.12701 10.8313 5.55001 11.3811L5.46445 11.4692C5.22993 11.7251 5.08197 12.0364 5.0256 12.362C4.96923 12.6899 5.00547 13.0336 5.13909 13.3519C5.1791 13.4483 5.22766 13.5412 5.28328 13.628Z" fill="#6A796F"/>
</svg>
