<svg width="24" height="24" viewBox="0 0 24 24" fill="none" xmlns="http://www.w3.org/2000/svg">
<path d="M11.9999 0C15.3143 0 18.3143 1.34375 20.4843 3.51562C22.6561 5.6875 23.9999 8.6875 23.9999 12C23.9999 15.3145 22.6561 18.3145 20.4843 20.4844C18.3124 22.6562 15.3124 24 11.9999 24C8.68738 24 5.68542 22.6562 3.5155 20.4844C1.34363 18.3145 -0.00012207 15.3145 -0.00012207 12C-0.00012207 8.68555 1.34363 5.68555 3.5155 3.51562C5.68542 1.34375 8.68543 0 11.9999 0ZM19.7421 4.25781C17.7596 2.27734 15.0233 1.05273 11.9999 1.05273C8.97644 1.05273 6.24011 2.27734 4.25769 4.25781C2.27722 6.24023 1.05261 8.97656 1.05261 12C1.05261 15.0234 2.27722 17.7598 4.25964 19.7422C6.24011 21.7227 8.97839 22.9492 12.0018 22.9492C15.0253 22.9492 17.7616 21.7246 19.744 19.7422C21.7245 17.7617 22.951 15.0234 22.951 12C22.9471 8.97656 21.7225 6.24023 19.7421 4.25781Z" fill="#6A796F"/>
<path d="M14.6484 6.9043C14.7988 6.89649 14.9316 6.95313 15.0488 7.0625L16.7265 8.66407C16.8339 8.76563 16.8925 8.90625 16.8925 9.05664C16.8925 9.20704 16.8515 9.34961 16.7421 9.45704L15.8495 10.3906L13.371 7.99805L14.2558 7.08008C14.3652 6.96289 14.498 6.9043 14.6484 6.9043Z" fill="#CA283B"/>
<path d="M9.42767 16.3535C9.75384 16.2461 10.0859 16.1465 10.412 16.0371L7.9765 13.5996L7.92572 13.6523L7.30853 16.0137C7.11712 16.7637 7.05853 17.1231 7.15033 17.0977C7.24212 17.0723 7.6679 16.9297 8.44329 16.6797C8.77728 16.5703 9.1015 16.4629 9.42767 16.3535Z" fill="#CA283B"/>
<path d="M12.7031 8.69141L8.87689 12.6621L11.3124 15.0977L15.1796 11.0762L12.7031 8.69141Z" fill="#CA283B"/>
</svg>
