<svg width="20" height="21" viewBox="0 0 20 21" fill="none" xmlns="http://www.w3.org/2000/svg">
<path d="M10 0.608704C8.68678 0.608704 7.38642 0.873783 6.17317 1.38881C4.95991 1.90383 3.85752 2.65871 2.92893 3.61035C1.05357 5.53228 0 8.13896 0 10.857C0 15.3867 2.87 19.2298 6.84 20.5928C7.34 20.6748 7.5 20.3571 7.5 20.0804C7.5 19.8447 7.5 19.1991 7.5 18.3485C4.73 18.9634 4.14 16.9752 4.14 16.9752C3.68 15.7864 3.03 15.4687 3.03 15.4687C2.12 14.8333 3.1 14.8538 3.1 14.8538C4.1 14.9255 4.63 15.9094 4.63 15.9094C5.5 17.4671 6.97 17.0059 7.54 16.76C7.63 16.0938 7.89 15.6429 8.17 15.3867C5.95 15.1305 3.62 14.2492 3.62 10.3446C3.62 9.207 4 8.29491 4.65 7.56728C4.55 7.31107 4.2 6.24525 4.75 4.86174C4.75 4.86174 5.59 4.58503 7.5 5.90706C8.29 5.6816 9.15 5.56887 10 5.56887C10.85 5.56887 11.71 5.6816 12.5 5.90706C14.41 4.58503 15.25 4.86174 15.25 4.86174C15.8 6.24525 15.45 7.31107 15.35 7.56728C16 8.29491 16.38 9.207 16.38 10.3446C16.38 14.2594 14.04 15.1203 11.81 15.3765C12.17 15.6942 12.5 16.3193 12.5 17.2724C12.5 18.6457 12.5 19.7525 12.5 20.0804C12.5 20.3571 12.66 20.6851 13.17 20.5928C17.14 19.2196 20 15.3867 20 10.857C20 9.51115 19.7413 8.17851 19.2388 6.93513C18.7362 5.69175 17.9997 4.56199 17.0711 3.61035C16.1425 2.65871 15.0401 1.90383 13.8268 1.38881C12.6136 0.873783 11.3132 0.608704 10 0.608704Z" fill="#6A796F"/>
</svg>
