<svg width="24" height="24" viewBox="0 0 24 24" fill="none" xmlns="http://www.w3.org/2000/svg">
<path d="M13.541 10.7875L18.2876 2L19.614 6.38647L23.3695 9.01245L13.541 10.7875Z" fill="#6A796F"/>
<path d="M22.9829 11.3822C22.9943 11.5867 23 11.7927 23 12C23 18.0751 18.0751 23 12 23C5.92487 23 1 18.0751 1 12C1 5.92487 5.92487 1 12 1C13.3801 1 14.7008 1.25414 15.9179 1.71818L16.382 0.825248C15.0245 0.292521 13.5464 0 12 0C5.37258 0 0 5.37258 0 12C0 18.6274 5.37258 24 12 24C18.6274 24 24 18.6274 24 12C24 11.7377 23.9916 11.4774 23.975 11.2192L22.9829 11.3822Z" fill="#6A796F"/>
<path d="M18.9999 12.0364C18.9803 15.8856 15.8539 19 12 19C8.13401 19 5 15.866 5 12C5 8.13401 8.13401 5 12 5C12.7144 5 13.4037 5.10701 14.053 5.30587L14.5211 4.40533C13.7285 4.14236 12.8809 4 12 4C7.58172 4 4 7.58172 4 12C4 16.4183 7.58172 20 12 20C16.4183 20 20 16.4183 20 12C20 11.9573 19.9997 11.9148 19.999 11.8723L18.9999 12.0364Z" fill="#6A796F"/>
<path d="M14.9162 12.7071C14.5983 14.0227 13.4133 15 12 15C10.3431 15 9 13.6569 9 12C9 10.3431 10.3431 9 12 9C12.044 9 12.0877 9.00095 12.1312 9.00282L12.6271 8.04887C12.4228 8.0167 12.2134 8 12 8C9.79086 8 8 9.79086 8 12C8 14.2091 9.79086 16 12 16C14.0278 16 15.7031 14.4911 15.9645 12.5349L14.9162 12.7071Z" fill="#6A796F"/>
</svg>
