<svg width="20" height="21" viewBox="0 0 20 21" fill="none" xmlns="http://www.w3.org/2000/svg">
<path d="M19.8459 9.7087H10.4263V12.4387H17.1135C16.7745 16.2487 13.5182 17.8787 10.4366 17.8787C6.50231 17.8787 3.05085 14.8587 3.05085 10.6087C3.05085 6.5087 6.33796 3.3387 10.4468 3.3387C13.621 3.3387 15.4802 5.3087 15.4802 5.3087L17.4319 3.3287C17.4319 3.3287 14.9255 0.608704 10.3441 0.608704C4.5095 0.608704 0 5.4087 0 10.6087C0 15.6587 4.24242 20.6087 10.4982 20.6087C15.9938 20.6087 20 16.9387 20 11.5187C20 10.3687 19.8459 9.7087 19.8459 9.7087Z" fill="#6A796F"/>
</svg>
