<svg width="18" height="24" viewBox="0 0 18 24" fill="none" xmlns="http://www.w3.org/2000/svg">
<path d="M9.26315 17.7868C9.82151 17.7868 10.357 17.5634 10.7518 17.1658C11.1466 16.7682 11.3684 16.229 11.3684 15.6667C11.3684 14.49 10.4211 13.5466 9.26315 13.5466C8.7048 13.5466 8.16932 13.77 7.77451 14.1675C7.3797 14.5651 7.15789 15.1044 7.15789 15.6667C7.15789 16.229 7.3797 16.7682 7.77451 17.1658C8.16932 17.5634 8.7048 17.7868 9.26315 17.7868ZM15.5789 8.24638C16.1373 8.24638 16.6728 8.46975 17.0676 8.86734C17.4624 9.26494 17.6842 9.80419 17.6842 10.3665V20.9669C17.6842 21.5292 17.4624 22.0684 17.0676 22.466C16.6728 22.8636 16.1373 23.087 15.5789 23.087H2.94737C2.38901 23.087 1.85353 22.8636 1.45872 22.466C1.06391 22.0684 0.842102 21.5292 0.842102 20.9669V10.3665C0.842102 9.18982 1.78947 8.24638 2.94737 8.24638H4V6.1263C4 4.7206 4.55451 3.37247 5.54154 2.37849C6.52857 1.38451 7.86728 0.826096 9.26315 0.826096C9.95432 0.826096 10.6387 0.963189 11.2773 1.22955C11.9158 1.49591 12.496 1.88632 12.9848 2.37849C13.4735 2.87066 13.8612 3.45495 14.1257 4.098C14.3902 4.74105 14.5263 5.43027 14.5263 6.1263V8.24638H15.5789ZM9.26315 2.94618C8.42563 2.94618 7.62241 3.28123 7.03019 3.87761C6.43797 4.474 6.10526 5.28288 6.10526 6.1263V8.24638H12.4211V6.1263C12.4211 5.28288 12.0883 4.474 11.4961 3.87761C10.9039 3.28123 10.1007 2.94618 9.26315 2.94618Z" fill="#6A796F"/>
</svg>
