<svg width="18" height="18" viewBox="0 0 18 18" fill="none" xmlns="http://www.w3.org/2000/svg">
<path d="M9.26315 0.652176C10.3799 0.652176 11.4508 1.09193 12.2404 1.87469C13.0301 2.65745 13.4737 3.7191 13.4737 4.82609C13.4737 5.93308 13.0301 6.99473 12.2404 7.77749C11.4508 8.56025 10.3799 9 9.26315 9C8.14645 9 7.07549 8.56025 6.28586 7.77749C5.49624 6.99473 5.05263 5.93308 5.05263 4.82609C5.05263 3.7191 5.49624 2.65745 6.28586 1.87469C7.07549 1.09193 8.14645 0.652176 9.26315 0.652176ZM9.26315 11.087C13.9158 11.087 17.6842 12.9548 17.6842 15.2609V17.3478H0.842102V15.2609C0.842102 12.9548 4.61052 11.087 9.26315 11.087Z" fill="#6A796F"/>
</svg>
