<svg width="24" height="24" viewBox="0 0 24 24" fill="none" xmlns="http://www.w3.org/2000/svg">
<path d="M12 0C15.3145 0 18.3145 1.34375 20.4844 3.51562C22.6562 5.6875 24 8.6875 24 12C24 15.3145 22.6562 18.3145 20.4844 20.4844C18.3125 22.6562 15.3125 24 12 24C8.6875 24 5.68555 22.6562 3.51562 20.4844C1.34375 18.3145 0 15.3145 0 12C0 8.68555 1.34375 5.68555 3.51562 3.51562C5.68555 1.34375 8.68555 0 12 0ZM19.7422 4.25781C17.7598 2.27734 15.0234 1.05273 12 1.05273C8.97656 1.05273 6.24023 2.27734 4.25781 4.25781C2.27734 6.24023 1.05273 8.97656 1.05273 12C1.05273 15.0234 2.27734 17.7598 4.25977 19.7422C6.24023 21.7227 8.97852 22.9492 12.002 22.9492C15.0254 22.9492 17.7617 21.7246 19.7441 19.7422C21.7246 17.7617 22.9512 15.0234 22.9512 12C22.9473 8.97656 21.7227 6.24023 19.7422 4.25781Z" fill="#6A796F"/>
</svg>
